<?xml version="1.0" standalone="no"?><!DOCTYPE svg PUBLIC "-//W3C//DTD SVG 1.1//EN" "http://www.w3.org/Graphics/SVG/1.1/DTD/svg11.dtd"><svg t="1497323712331" class="icon" style="" viewBox="0 0 1024 1024" version="1.1" xmlns="http://www.w3.org/2000/svg" p-id="4728" xmlns:xlink="http://www.w3.org/1999/xlink" width="200" height="200"><defs><style type="text/css"></style></defs><path d="M0 955.733333l1024 0 0 68.266667-1024 0 0-68.266667Z" p-id="4729"></path><path d="M170.666667 614.348879C170.666667 595.525792 185.817253 580.266667 204.8 580.266667 223.651319 580.266667 238.933333 595.540972 238.933333 614.348879L238.933333 989.917788C238.933333 1008.740874 223.782747 1024 204.8 1024 185.948681 1024 170.666667 1008.725695 170.666667 989.917788L170.666667 614.348879 170.666667 614.348879 170.666667 614.348879ZM375.466667 273.171475C375.466667 254.262271 390.617252 238.933333 409.6 238.933333 428.451318 238.933333 443.733333 253.91506 443.733333 273.171475L443.733333 989.761857C443.733333 1008.671061 428.582748 1024 409.6 1024 390.748682 1024 375.466667 1009.018272 375.466667 989.761857L375.466667 273.171475 375.466667 273.171475 375.466667 273.171475ZM580.266667 34.070313C580.266667 15.253798 595.417252 0 614.4 0 633.251318 0 648.533333 15.270065 648.533333 34.070313L648.533333 989.929687C648.533333 1008.746202 633.382748 1024 614.4 1024 595.548682 1024 580.266667 1008.729935 580.266667 989.929687L580.266667 34.070313 580.266667 34.070313 580.266667 34.070313ZM785.066667 375.186879C785.066667 356.490083 800.217252 341.333333 819.2 341.333333 838.051318 341.333333 853.333333 356.874431 853.333333 375.186879L853.333333 990.146454C853.333333 1008.84325 838.182748 1024 819.2 1024 800.348682 1024 785.066667 1008.458902 785.066667 990.146454L785.066667 375.186879 785.066667 375.186879 785.066667 375.186879Z" p-id="4730"></path></svg>